<svg width="21" height="22" viewBox="0 0 82 54" fill="none" xmlns="http://www.w3.org/2000/svg">
    <path d="M14.9924 12.0662C14.6039 12.0662 14.2889 12.382 14.2889 12.7715V21.1495C14.2889 21.539 14.6039 21.8547 14.9924 21.8547H24.6786C27.3749 21.8547 29.5606 19.6635 29.5606 16.9605C29.5606 14.2574 27.3749 12.0662 24.6786 12.0662H14.9924Z" fill="black"></path>
    <path d="M14.9924 28.1295C14.6039 28.1295 14.2889 28.4453 14.2889 28.8348V38.9697C14.2889 39.3592 14.6039 39.6749 14.9924 39.6749H25.3045C28.4847 39.6749 31.0627 37.0904 31.0627 33.9022C31.0627 30.714 28.4847 28.1295 25.3045 28.1295H14.9924Z" fill="black"></path>
    <path d="M55.0025 28.6314C54.8313 28.6314 54.6926 28.4923 54.6926 28.3207C54.6926 24.8883 57.4681 22.1057 60.8918 22.1057H62.2628C65.6866 22.1057 68.4621 24.8883 68.4621 28.3207C68.4621 28.4923 68.3233 28.6314 68.1521 28.6314H55.0025Z" fill="black"></path>
    <path fill-rule="evenodd" clip-rule="evenodd" d="M42.4574 24.7747C42.2325 24.4903 41.9982 24.2147 41.755 23.9482C43.2759 21.5385 44.0487 18.7312 43.9765 15.882C44.04 13.4324 43.5508 10.9994 42.5448 8.76449C41.564 6.54251 39.996 4.63147 38.0105 3.23765L37.9708 3.21003C36.098 1.92086 33.9748 1.04336 31.7406 0.634548C29.5954 0.189585 27.4086 -0.0225309 25.218 0.00189175H5.27623C2.36225 0.00189175 0 2.37012 0 5.29147V47.4556C0 50.3769 2.36225 52.7451 5.27623 52.7451H25.6799C27.9904 52.7468 30.2917 52.4534 32.5282 51.8719C34.8274 51.2755 37.0059 50.2834 38.9662 48.9395L38.9919 48.9216C40.9483 47.5632 42.5701 45.7794 43.7376 43.7063C44.488 45.1483 45.4114 46.4976 46.4898 47.7233C46.5201 47.7578 46.5509 47.7919 46.5821 47.8255C48.4762 49.8685 50.803 51.4605 53.3909 52.4857L53.4569 52.5114C56.1151 53.5234 58.9394 54.0259 61.7823 53.9933C65.8716 54.0961 69.9056 53.0153 73.3979 50.8781C73.5003 50.8155 73.6005 50.7493 73.6983 50.6799C77.3809 48.0651 80.0358 44.243 81.1987 39.8729C81.4289 39.0079 81.4334 38.1112 81.2285 37.2634C81.6236 36.5848 81.873 35.8084 81.9322 34.9755C82.131 32.1807 81.892 29.372 81.2241 26.6511L81.2191 26.6311C80.5382 23.903 79.3468 21.3291 77.7086 19.0453L77.6536 18.97C75.9194 16.64 73.6805 14.7343 71.1061 13.3947C71.0717 13.3769 71.0372 13.3594 71.0025 13.3423C68.1923 11.9578 65.0958 11.2571 61.9651 11.2959C59.1034 11.2828 56.2671 11.8386 53.6212 12.9315L53.5873 12.9456C51.0987 13.9939 48.8427 15.5271 46.9511 17.4567L46.9096 17.4996C45.011 19.4806 43.5399 21.832 42.5888 24.4078L42.5852 24.4174C42.5416 24.5362 42.499 24.6553 42.4574 24.7747ZM32.8096 24.5301C34.8327 25.019 36.6451 26.1234 38.005 27.6787C38.2385 27.9456 38.4586 28.2259 38.6642 28.5186C38.7628 28.6687 38.8577 28.8209 38.949 28.9749C40.0654 30.859 40.6297 33.0244 40.5711 35.2219C40.6285 37.1402 40.2028 39.0421 39.3333 40.7522C38.5476 42.2813 37.3987 43.5935 35.9878 44.5731C34.5313 45.5717 32.9125 46.3089 31.2038 46.7517C30.3957 46.9618 29.5772 47.1252 28.7522 47.2415C27.7366 47.3846 26.7113 47.4563 25.6837 47.4556H5.27623V5.29147H25.2488C27.0917 5.26888 28.9316 5.4487 30.7354 5.82773C32.2596 6.09809 33.7084 6.69238 34.9842 7.57061C36.1875 8.41532 37.1364 9.57463 37.7275 10.9223C38.4311 12.4778 38.7632 14.1762 38.6977 15.8828C38.7651 17.569 38.3639 19.2371 37.5442 20.7031C37.4542 20.864 37.3591 21.0226 37.2591 21.1784C36.1591 22.6617 34.5123 23.8197 32.8096 24.5301ZM54.5273 35.3547C54.5159 35.104 54.5158 34.852 54.5273 34.5993H76.6693C76.7011 34.152 76.719 33.7043 76.7229 33.2568C76.728 32.6816 76.7101 32.1067 76.6693 31.5336C76.6163 30.7884 76.5247 30.0461 76.3947 29.3097C76.3121 28.8422 76.2141 28.3772 76.1007 27.9152C75.5819 25.8365 74.674 23.8748 73.425 22.1335C72.1678 20.4444 70.544 19.0619 68.6755 18.0896C66.5965 17.0654 64.3036 16.5499 61.986 16.5857C59.8063 16.5697 57.6455 16.9902 55.6311 17.8222C53.7865 18.5992 52.1151 19.7353 50.7143 21.1643C49.3175 22.6218 48.236 24.351 47.5368 26.2442C46.7866 28.288 46.4127 30.4506 46.4331 32.6275C46.3987 34.8352 46.7612 37.0313 47.5034 39.111C48.1338 40.9944 49.1345 42.7328 50.4468 44.2243C51.8044 45.6887 53.473 46.8306 55.33 47.5664C57.4008 48.3547 59.6032 48.7404 61.8188 48.7027C64.9274 48.7995 67.9966 47.9864 70.6488 46.3633C71.682 45.6297 72.6036 44.7657 73.3944 43.799C74.3511 42.6297 75.1164 41.31 75.6564 39.8889C75.8275 39.4387 75.9759 38.9784 76.1007 38.5095H68.7089C68.5202 39.0101 68.2559 39.4748 67.928 39.8889C67.5683 40.3431 67.1321 40.7365 66.6352 41.0494C65.3487 41.9011 63.8296 42.3332 62.2871 42.286C61.266 42.3923 60.234 42.2869 59.2556 41.9764C58.2772 41.6659 57.3735 41.1569 56.601 40.4813C56.4325 40.2904 56.2736 40.0927 56.1244 39.8889C55.1574 38.5676 54.6017 36.9899 54.5273 35.3547Z" fill="black"></path>
    <path d="M70.1618 5.03603C70.1539 4.26263 69.5263 3.63981 68.7548 3.63981H54.5974C53.8203 3.63981 53.1904 4.27134 53.1904 5.05036V8.82811C53.1904 9.60714 53.8203 10.2387 54.5974 10.2387H68.7931C69.5758 10.2387 70.208 9.59837 70.2001 8.81378L70.1618 5.03603Z" fill="black"></path>
</svg>