<svg width="18" height="22" viewBox="0 0 79 80" fill="none" xmlns="http://www.w3.org/2000/svg">
    <path fill-rule="evenodd" clip-rule="evenodd" d="M31.2387 7.19489C36.1717 13.4653 40.5931 20.1674 44.4389 27.2364C51.3941 24.6053 57.9449 21.135 63.972 16.947C57.8664 10.303 49.1622 6.15385 39.5 6.15385C36.6461 6.15385 33.8788 6.51538 31.2387 7.19489ZM67.6979 21.8204C61.3924 26.2358 54.5438 29.9132 47.2748 32.7295C48.4313 35.0941 49.5249 37.4959 50.5533 39.9327C53.2343 39.5321 55.9773 39.3246 58.7683 39.3246C63.6489 39.3246 68.3868 39.9598 72.904 41.1542C72.9167 40.7711 72.9231 40.3864 72.9231 40C72.9231 33.3057 71.0066 27.0711 67.6979 21.8204ZM72.1401 47.3191C67.8883 46.1201 63.4045 45.4784 58.7683 45.4784C56.7787 45.4784 54.8164 45.5967 52.8878 45.8268C55.4719 52.8006 57.5314 60.0346 59.0174 67.4794C65.5728 62.6959 70.3446 55.5692 72.1401 47.3191ZM53.4567 70.7638C51.9462 62.5409 49.7059 54.5773 46.8064 46.9446C35.2406 49.8364 25.268 56.8272 18.4775 66.3143C24.2212 71.0264 31.5328 73.8462 39.5 73.8462C44.4868 73.8462 49.2122 72.7421 53.4567 70.7638ZM14.0831 61.9804C21.5074 51.9471 32.1546 44.4931 44.4718 41.1965C43.53 39.0211 42.5336 36.8754 41.4845 34.7611C32.3821 37.6293 22.7046 39.1745 12.6726 39.1745C10.4616 39.1745 8.26748 39.0994 6.09264 38.9516C6.0822 39.2997 6.07692 39.6492 6.07692 40C6.07692 48.3904 9.08885 56.0647 14.0831 61.9804ZM6.82714 32.8332C8.75947 32.9575 10.7086 33.0206 12.6726 33.0206C21.6748 33.0206 30.3693 31.6945 38.5772 29.2245C34.6865 22.2107 30.2002 15.5807 25.1874 9.40458C15.9431 13.8476 9.03513 22.4603 6.82714 32.8332ZM24.9407 2.80569C29.4501 0.994175 34.3641 0 39.5 0C52.264 0 63.6146 6.13418 70.8307 15.6375C75.953 22.3835 79 30.8358 79 40C79 41.9014 78.8688 43.7736 78.6146 45.6073C76.8383 58.4206 69.0746 69.2754 58.2917 75.1915C52.7003 78.2592 46.2964 80 39.5 80C28.9904 80 19.4339 75.8396 12.3595 69.0626C4.75233 61.7752 0 51.4471 0 40C0 38.4002 0.092895 36.8211 0.273787 35.2681C2.00028 20.4459 11.7206 8.11655 24.9407 2.80569Z" fill="black"></path>
</svg>