<svg width="24" height="24" viewBox="0 0 24 24" fill="none" xmlns="http://www.w3.org/2000/svg">
<path d="M1.40625 12C1.40625 9.61262 2.18133 7.35896 3.64767 5.4826C3.88678 5.1766 3.83255 4.73476 3.52659 4.4956C3.22064 4.25654 2.77875 4.31073 2.53964 4.61668C0.878203 6.74269 0 9.29584 0 12C0 14.7042 0.878203 17.2573 2.53964 19.3833C2.77716 19.6873 3.21863 19.7451 3.52655 19.5044C3.83255 19.2653 3.88673 18.8234 3.64762 18.5174C2.18133 16.6411 1.40625 14.3874 1.40625 12Z" fill="white"/>
<path d="M21.4604 4.61668C21.2213 4.31068 20.7794 4.2565 20.4735 4.4956C20.1675 4.73476 20.1133 5.17665 20.3524 5.4826C21.8187 7.35896 22.5937 9.61262 22.5937 12C22.5937 14.3874 21.8187 16.6411 20.3523 18.5174C20.1132 18.8234 20.1674 19.2653 20.4734 19.5044C20.7786 19.7429 21.2205 19.6902 21.4604 19.3833C23.1218 17.2573 24 14.7042 24 12C24 9.29584 23.1218 6.7427 21.4604 4.61668Z" fill="white"/>
<path d="M12 2.39062C6.70134 2.39062 2.39062 6.70139 2.39062 12C2.39062 17.2986 6.70134 21.6094 12 21.6094C17.2987 21.6094 21.6094 17.2986 21.6094 12C21.6094 6.70139 17.2987 2.39062 12 2.39062ZM11.8343 15.8117L11.1713 16.4746C10.1639 17.4822 8.53298 17.4824 7.52531 16.4746C6.52012 15.4695 6.52012 13.8338 7.52531 12.8287L9.51408 10.8399C10.5193 9.8348 12.1548 9.8348 13.1601 10.8398C13.4347 11.1144 13.4347 11.5596 13.1601 11.8343C12.8855 12.1088 12.4403 12.1088 12.1657 11.8343C11.7088 11.3773 10.9653 11.3775 10.5084 11.8343L8.51967 13.823C8.06278 14.2799 8.06278 15.0234 8.51967 15.4803C8.97661 15.9372 9.72005 15.9372 10.1769 15.4803L10.8398 14.8174C11.1144 14.5428 11.5597 14.5428 11.8342 14.8174C12.1088 15.092 12.1088 15.5372 11.8343 15.8117ZM16.4747 11.1713L14.4859 13.1601C13.4807 14.1653 11.8452 14.1652 10.8399 13.1602C10.5653 12.8856 10.5653 12.4404 10.8399 12.1658C11.1145 11.8912 11.5597 11.8912 11.8343 12.1657C12.2912 12.6226 13.0347 12.6226 13.4916 12.1658L15.4803 10.177C15.9372 9.72009 15.9372 8.97661 15.4803 8.51972C15.0234 8.06283 14.28 8.06292 13.8231 8.51972L13.1602 9.18262C12.8856 9.45722 12.4404 9.45722 12.1658 9.18262C11.8912 8.90803 11.8912 8.46286 12.1658 8.18827L12.8287 7.52536C13.8362 6.51783 15.4671 6.51764 16.4747 7.52536C17.4798 8.53055 17.4798 10.1662 16.4747 11.1713Z" fill="white"/>
</svg>
